<svg width="24" height="24" viewBox="0 0 24 24" fill="none" xmlns="http://www.w3.org/2000/svg">
<g clip-path="url(#clip0_4_25)">
<path d="M16.8725 8.31375C16.7684 8.04406 16.6089 7.79917 16.4044 7.59486C16.1999 7.39055 15.9548 7.23134 15.685 7.1275C15.3135 6.98991 14.9211 6.91718 14.525 6.9125C13.8662 6.8825 13.6687 6.875 12 6.875C10.3313 6.875 10.1337 6.8825 9.475 6.9125C9.07845 6.91704 8.68564 6.98977 8.31375 7.1275C8.04406 7.23163 7.79917 7.39109 7.59486 7.59562C7.39055 7.80015 7.23134 8.0452 7.1275 8.315C6.98991 8.68649 6.91718 9.07887 6.9125 9.475C6.8825 10.1337 6.875 10.3313 6.875 12C6.875 13.6687 6.8825 13.8662 6.9125 14.525C6.91704 14.9215 6.98977 15.3144 7.1275 15.6862C7.23163 15.9559 7.39109 16.2008 7.59562 16.4051C7.80015 16.6094 8.0452 16.7687 8.315 16.8725C8.68649 17.0101 9.07887 17.0828 9.475 17.0875C10.1337 17.1175 10.3313 17.125 12 17.125C13.6687 17.125 13.8662 17.1175 14.525 17.0875C14.9215 17.083 15.3144 17.0102 15.6862 16.8725C15.9559 16.7684 16.2008 16.6089 16.4051 16.4044C16.6094 16.1999 16.7687 15.9548 16.8725 15.685C17.0101 15.3135 17.0828 14.9211 17.0875 14.525C17.1175 13.8662 17.125 13.6687 17.125 12C17.125 10.3313 17.1175 10.1337 17.0875 9.475C17.083 9.07845 17.0102 8.68564 16.8725 8.31375ZM12 15.21C11.3651 15.21 10.7445 15.0217 10.2166 14.669C9.68874 14.3163 9.2773 13.815 9.03435 13.2284C8.79139 12.6419 8.72782 11.9964 8.85168 11.3738C8.97554 10.7511 9.28126 10.1791 9.73019 9.73019C10.1791 9.28126 10.7511 8.97554 11.3738 8.85168C11.9964 8.72782 12.6419 8.79139 13.2284 9.03435C13.815 9.2773 14.3163 9.68874 14.669 10.2166C15.0217 10.7445 15.21 11.3651 15.21 12C15.21 12.8513 14.8718 13.6678 14.2698 14.2698C13.6678 14.8718 12.8513 15.21 12 15.21ZM15.3362 9.41375C15.1879 9.41375 15.0429 9.36976 14.9196 9.28735C14.7962 9.20494 14.7001 9.08781 14.6433 8.95076C14.5866 8.81372 14.5717 8.66292 14.6007 8.51743C14.6296 8.37195 14.701 8.23831 14.8059 8.13342C14.9108 8.02853 15.0444 7.9571 15.1899 7.92816C15.3354 7.89922 15.4862 7.91407 15.6233 7.97084C15.7603 8.02761 15.8774 8.12374 15.9599 8.24707C16.0423 8.37041 16.0862 8.51541 16.0862 8.66375C16.0862 8.86266 16.0072 9.05343 15.8666 9.19408C15.7259 9.33473 15.5352 9.41375 15.3362 9.41375Z" fill="white"/>
<path d="M12 14.0838C13.1508 14.0838 14.0838 13.1508 14.0838 12C14.0838 10.8492 13.1508 9.91626 12 9.91626C10.8492 9.91626 9.91626 10.8492 9.91626 12C9.91626 13.1508 10.8492 14.0838 12 14.0838Z" fill="white"/>
<path d="M12 0C9.62663 0 7.30655 0.703788 5.33316 2.02236C3.35977 3.34094 1.8217 5.21509 0.913451 7.4078C0.00519939 9.60051 -0.232441 12.0133 0.230582 14.3411C0.693605 16.6689 1.83649 18.8071 3.51472 20.4853C5.19295 22.1635 7.33115 23.3064 9.65892 23.7694C11.9867 24.2324 14.3995 23.9948 16.5922 23.0866C18.7849 22.1783 20.6591 20.6402 21.9776 18.6668C23.2962 16.6935 24 14.3734 24 12C24 8.8174 22.7357 5.76515 20.4853 3.51472C18.2348 1.26428 15.1826 0 12 0ZM18.2125 14.5775C18.2018 15.0957 18.1033 15.6084 17.9213 16.0937C17.7607 16.5088 17.5152 16.8858 17.2005 17.2005C16.8858 17.5152 16.5089 17.7607 16.0938 17.9212C15.6084 18.1033 15.0957 18.2018 14.5775 18.2125C13.91 18.2425 13.6975 18.25 12 18.25C10.3025 18.25 10.09 18.2425 9.4225 18.2125C8.90426 18.2018 8.39159 18.1033 7.90625 17.9212C7.49116 17.7607 7.11418 17.5152 6.79947 17.2005C6.48477 16.8858 6.23929 16.5088 6.07875 16.0937C5.89671 15.6084 5.79823 15.0957 5.78751 14.5775C5.7575 13.91 5.75 13.6975 5.75 12C5.75 10.3025 5.7575 10.09 5.78751 9.4225C5.79823 8.90426 5.89671 8.39158 6.07875 7.90625C6.23929 7.49115 6.48477 7.11417 6.79947 6.79947C7.11418 6.48476 7.49116 6.23928 7.90625 6.07875C8.39159 5.8967 8.90426 5.79822 9.4225 5.7875C10.09 5.7575 10.3025 5.75 12 5.75C13.6975 5.75 13.91 5.7575 14.5775 5.7875C15.0957 5.79822 15.6084 5.8967 16.0938 6.07875C16.5089 6.23928 16.8858 6.48476 17.2005 6.79947C17.5152 7.11417 17.7607 7.49115 17.9213 7.90625C18.1033 8.39158 18.2018 8.90426 18.2125 9.4225C18.2425 10.09 18.25 10.3025 18.25 12C18.25 13.6975 18.2425 13.91 18.2125 14.5775Z" fill="white"/>
</g>
<defs>
<clipPath id="clip0_4_25">
<rect width="24" height="24" fill="white"/>
</clipPath>
</defs>
</svg>
